<svg id="Layer_1" data-name="Layer 1" xmlns="http://www.w3.org/2000/svg" viewBox="0 0 20 20"><defs><style>.cls-1{fill:#fff;}.cls-2{fill:#ff5722;}</style></defs><title>-</title><path class="cls-1" d="M19.5294,7.7406l-1.5372-.3341a8.3668,8.3668,0,0,0-.4946-1.193L18.3485,4.89a.5977.5977,0,0,0-.08-.7457L15.8737,1.7494a.5978.5978,0,0,0-.7457-.08l-1.3237.851a8.3661,8.3661,0,0,0-1.1929-.4947L12.2772.4884a.5975.5975,0,0,0-.5839-.4705H8.3067a.5975.5975,0,0,0-.5839.4705L7.3886,2.0256A8.3661,8.3661,0,0,0,6.1957,2.52L4.872,1.6693a.5978.5978,0,0,0-.7457.08L1.7316,4.1441a.5977.5977,0,0,0-.08.7457l.8509,1.3237a8.3668,8.3668,0,0,0-.4946,1.193L.4706,7.7406A.5977.5977,0,0,0,0,8.3246v3.3865a.5977.5977,0,0,0,.4706.584l1.5372.3341a8.362,8.362,0,0,0,.4946,1.193l-.8509,1.3237a.5977.5977,0,0,0,.08.7457l2.3947,2.3947a.5977.5977,0,0,0,.7457.08l1.3237-.851a8.3661,8.3661,0,0,0,1.1929.4947l.3342,1.5372a.5976.5976,0,0,0,.5839.4706h3.3866a.5976.5976,0,0,0,.5839-.4706l.3342-1.5372a8.3661,8.3661,0,0,0,1.1929-.4947l1.3237.851a.5976.5976,0,0,0,.7457-.08l2.3947-2.3947a.5977.5977,0,0,0,.08-.7457l-.8509-1.3237a8.362,8.362,0,0,0,.4946-1.193l1.5372-.3341A.5977.5977,0,0,0,20,11.7111V8.3246A.5977.5977,0,0,0,19.5294,7.7406Z"/><path class="cls-2" d="M18.8048,11.2294l-1.41.3064a.5979.5979,0,0,0-.4487.4234,7.1728,7.1728,0,0,1-.6621,1.5969.5974.5974,0,0,0,.0177.6169l.7805,1.214-1.7134,1.7135-1.2142-.78a.5972.5972,0,0,0-.6167-.0177,7.1747,7.1747,0,0,1-1.597.6621.5982.5982,0,0,0-.4235.4488l-.3064,1.4094H8.7885l-.3064-1.4094a.5982.5982,0,0,0-.4235-.4488,7.1692,7.1692,0,0,1-1.5968-.6621.598.598,0,0,0-.6169.0177l-1.214.7805L2.9175,15.387l.78-1.214a.5976.5976,0,0,0,.0179-.6169,7.1781,7.1781,0,0,1-.6623-1.5969.5976.5976,0,0,0-.4486-.4234l-1.41-.3064V8.8063L2.6047,8.5a.5978.5978,0,0,0,.4487-.4234A7.1728,7.1728,0,0,1,3.7155,6.48a.5974.5974,0,0,0-.0177-.6169l-.78-1.214L4.6307,2.9352l1.2142.7805a.5972.5972,0,0,0,.6167.0177,7.1747,7.1747,0,0,1,1.597-.6621.598.598,0,0,0,.4235-.4488l.3064-1.4094h2.423l.3064,1.4094a.598.598,0,0,0,.4235.4488,7.1692,7.1692,0,0,1,1.5968.6621.5978.5978,0,0,0,.6169-.0177l1.214-.78,1.7134,1.7135-.78,1.214a.5976.5976,0,0,0-.0179.6169,7.1734,7.1734,0,0,1,.6623,1.5969.5975.5975,0,0,0,.4486.4234l1.41.3064Z"/><circle class="cls-1" cx="10" cy="10.0179" r="4.7809"/><circle class="cls-2" cx="10" cy="10.0179" r="3.5857"/></svg>