<svg id="Layer_1" data-name="Layer 1" xmlns="http://www.w3.org/2000/svg" viewBox="0 0 20 20"><defs><style>.cls-1{fill:#fff;}</style></defs><title>icon_mic</title><path class="cls-1" d="M16.39,10.349a.7048.7048,0,0,0-1.41,0,4.98,4.98,0,1,1-9.9608,0,.7048.7048,0,0,0-1.41,0,6.389,6.389,0,0,0,5.6852,6.3665v1.8794H6.7345a.7048.7048,0,0,0,0,1.41h6.531a.7048.7048,0,1,0,0-1.41H10.7048V16.7155A6.389,6.389,0,0,0,16.39,10.349Z"/><path class="cls-1" d="M10,.0357A3.93,3.93,0,0,0,6.0767,3.959v6.3665a3.9233,3.9233,0,1,0,7.8466.0235V3.959A3.93,3.93,0,0,0,10,.0357Z"/></svg>