<svg id="Layer_1" data-name="Layer 1" xmlns="http://www.w3.org/2000/svg" viewBox="0 0 20 20"><defs><style>.cls-1{fill:#fff;}.cls-2{fill:#ff5722;}</style></defs><title>icon_video</title><path class="cls-1" d="M19.8308,5.3607a.4239.4239,0,0,0-.4191-.0076L14.8265,7.8568V6.3545A2.1193,2.1193,0,0,0,12.71,4.2376H2.171A2.1193,2.1193,0,0,0,.054,6.3545v8.3588A2.1193,2.1193,0,0,0,2.171,16.83H12.71a2.1193,2.1193,0,0,0,2.117-2.1169v-1.475l4.5854,2.5037a.4234.4234,0,0,0,.6263-.3717V5.7247A.4233.4233,0,0,0,19.8308,5.3607Z"/><path class="cls-2" d="M15.4649,9.4152l2.67-1.4742a.3.3,0,0,1,.4483.2537v4.3435A.3349.3349,0,0,1,18.1,12.83L15.4937,11.58a.4119.4119,0,0,1-.2365-.37V9.762A.3969.3969,0,0,1,15.4649,9.4152Z"/><path class="cls-2" d="M13.1946,13.9642a1.1026,1.1026,0,0,1-1.1306,1.07h-9.38a1.1028,1.1028,0,0,1-1.1307-1.07V6.9236a1.1029,1.1029,0,0,1,1.1307-1.07h9.3805a1.1028,1.1028,0,0,1,1.1306,1.07Z"/></svg>