<svg id="Layer_1" data-name="Layer 1" xmlns="http://www.w3.org/2000/svg" viewBox="0 0 35 25"><defs><style>.cls-1{fill:#fff;}.cls-2{fill:#ff5722;}</style></defs><title>icon_share</title><path class="cls-1" d="M15.6949,6.1071H1.8381a.7467.7467,0,0,0-.7264.75V16.01a.7074.7074,0,0,0,.7109.704l.0155,0H5.1072V17.44h-.65a.7265.7265,0,0,0,0,1.453h8.618a.7265.7265,0,0,0,0-1.453h-.631v-.7264h3.25A.7238.7238,0,0,0,16.44,16.01V6.8569A.7628.7628,0,0,0,15.6949,6.1071Z"/><rect class="cls-2" x="6.5601" y="16.7135" width="4.4314" height="0.7265"/><rect class="cls-2" x="2.5646" y="7.5601" width="12.4225" height="7.7005"/><path class="cls-1" d="M33.1619,6.1071H19.3051a.7629.7629,0,0,0-.7451.75V16.01a.7238.7238,0,0,0,.7451.7038h3.25V17.44h-.631a.7265.7265,0,0,0,0,1.453h8.618a.7265.7265,0,1,0,0-1.453h-.65v-.7264h3.2691a.7076.7076,0,0,0,.7262-.6883l0-.0155V6.8569A.7467.7467,0,0,0,33.1619,6.1071Z"/><rect class="cls-2" x="24.0085" y="16.7135" width="4.4314" height="0.7265"/><rect class="cls-2" x="20.0129" y="7.5601" width="12.4225" height="7.7005"/></svg>