<?xml version="1.0" encoding="utf-8"?>
<!-- Generator: Adobe Illustrator 23.0.3, SVG Export Plug-In . SVG Version: 6.00 Build 0)  -->
<svg version="1.1" id="Capa_1" xmlns="http://www.w3.org/2000/svg" xmlns:xlink="http://www.w3.org/1999/xlink" x="0px" y="0px"
	 viewBox="0 0 512 512" style="enable-background:new 0 0 512 512;" xml:space="preserve">
<style type="text/css">
	.st0{fill:#FFFFFF;}
</style>
<g>
	<g>
		<path class="st0" d="M268.7,256l136.1-128.5c14.1-14.1,21.9-32.9,21.9-52.8C426.7,33.5,393.2,0,352,0c-19.9,0-38.6,7.7-52.7,21.8
			L107.2,203.2c-10.4,10.4-17.4,23.4-20.4,37.8c-1,5-1.5,10-1.5,15c0,5,0.5,10,1.5,15c2.9,14.3,10,27.4,20.6,38l191.8,181.1
			c14.1,14.1,32.9,21.9,52.8,21.9c41.2,0,74.7-33.5,74.7-74.7c0-20-7.8-38.7-22.1-53L268.7,256z"/>
	</g>
</g>
</svg>
