<?xml version="1.0" encoding="utf-8"?>
<!-- Generator: Adobe Illustrator 23.0.3, SVG Export Plug-In . SVG Version: 6.00 Build 0)  -->
<svg version="1.1" id="Capa_1" xmlns="http://www.w3.org/2000/svg" xmlns:xlink="http://www.w3.org/1999/xlink" x="0px" y="0px"
	 viewBox="0 0 512 512" style="enable-background:new 0 0 512 512;" xml:space="preserve">
<style type="text/css">
	.st0{fill:#B00513;}
</style>
<g>
	<g>
		<g>
			<path class="st0" d="M256,0c-55.1,0-100,44.8-100,100v169.9c0,55.1,44.8,100,100,100s100-45.1,100-100.6V100
				C356,44.8,311.1,0,256,0z M321.3,269.3c0,36.3-29.3,65.9-65.3,65.9s-65.3-29.3-65.3-65.3V100c0-36,29.3-65.3,65.3-65.3
				S321.3,64,321.3,100V269.3z"/>
		</g>
	</g>
	<g>
		<g>
			<rect x="238.7" y="420.1" class="st0" width="34.7" height="78.6"/>
		</g>
	</g>
	<g>
		<g>
			<path class="st0" d="M327.7,477.3H184.3c-9.6,0-17.3,7.8-17.3,17.3s7.8,17.3,17.3,17.3h143.3c9.6,0,17.3-7.8,17.3-17.3
				C345,485.1,337.2,477.3,327.7,477.3z"/>
		</g>
	</g>
	<g>
		<g>
			<path class="st0" d="M402.2,184.3c-9.6,0-17.3,7.8-17.3,17.3v68.2c0,71.1-57.8,128.9-128.9,128.9s-128.9-57.8-128.9-128.9v-68.2
				c0-9.6-7.8-17.3-17.3-17.3s-17.3,7.8-17.3,17.3v68.2c0,90.2,73.4,163.5,163.5,163.5S419.5,360,419.5,269.9v-68.2
				C419.5,192.1,411.8,184.3,402.2,184.3z"/>
		</g>
	</g>
	<g>
		<g>
			<path class="st0" d="M467,45c-6.8-6.8-17.7-6.8-24.5,0L45,442.5c-6.8,6.8-6.8,17.7,0,24.5c3.4,3.4,7.8,5.1,12.3,5.1
				c4.4,0,8.9-1.7,12.3-5.1L467,69.5C473.8,62.7,473.8,51.7,467,45z"/>
		</g>
	</g>
</g>
</svg>
