<?xml version="1.0" encoding="utf-8"?>
<!-- Generator: Adobe Illustrator 23.0.3, SVG Export Plug-In . SVG Version: 6.00 Build 0)  -->
<svg version="1.1" id="Capa_1" xmlns="http://www.w3.org/2000/svg" xmlns:xlink="http://www.w3.org/1999/xlink" x="0px" y="0px"
	 viewBox="0 0 512 512" style="enable-background:new 0 0 512 512;" xml:space="preserve">
<style type="text/css">
	.st0{fill:#FFFFFF;}
</style>
<g>
	<g>
		<path class="st0" d="M389.4,299.6c-20.4-20.4-44.7-35.5-71.2-44.6c28.4-19.5,47-52.2,47-89.2c0-59.7-48.6-108.3-108.3-108.3
			s-108.3,48.6-108.3,108.3c0,36.9,18.7,69.7,47,89.2c-26.5,9.1-50.8,24.2-71.2,44.6C89.2,334.9,69.8,382,69.8,432H99
			c0-87.1,70.9-158,158-158s158,70.9,158,158h29.3C444.3,382,424.8,334.9,389.4,299.6z M257,244.8c-43.6,0-79-35.4-79-79
			s35.4-79,79-79s79,35.4,79,79S300.6,244.8,257,244.8z"/>
	</g>
</g>
<g>
	<path class="st0" d="M255.5,29c30.6,0,60.2,6,88.2,17.8c27,11.4,51.2,27.7,72,48.6c20.8,20.8,37.1,45,48.6,72
		c11.8,27.9,17.8,57.6,17.8,88.2s-6,60.2-17.8,88.2c-11.4,27-27.7,51.2-48.6,72c-20.8,20.8-45,37.1-72,48.6
		C315.7,476,286.1,482,255.5,482s-60.2-6-88.2-17.8c-27-11.4-51.2-27.7-72-48.6c-20.8-20.8-37.1-45-48.6-72
		C35,315.7,29,286.1,29,255.5s6-60.2,17.8-88.2c11.4-27,27.7-51.2,48.6-72c20.8-20.8,45-37.1,72-48.6C195.3,35,224.9,29,255.5,29
		 M255.5,1C114.9,1,1,114.9,1,255.5S114.9,510,255.5,510S510,396.1,510,255.5S396.1,1,255.5,1L255.5,1z"/>
</g>
</svg>
