<svg id="Layer_1" data-name="Layer 1" xmlns="http://www.w3.org/2000/svg" viewBox="0 0 20 20"><defs><style>.cls-1{fill:#fff;}.cls-2{fill:#ff5722;}</style></defs><title>icon_lockscreen</title><path class="cls-1" d="M19.0514,3.153H.9574a.996.996,0,0,0-.973.979V16.0836a.9451.9451,0,0,0,.973.9191H5.2017v.9486H4.3778a.9486.9486,0,1,0,0,1.8972H15.6311a.9486.9486,0,0,0,0-1.8972h-.8485v-.9486h4.2688A.924.924,0,0,0,20,16.1039l0-.02V4.1321A.9751.9751,0,0,0,19.0514,3.153Z"/><rect class="cls-2" x="1.4701" y="4.5401" width="17.0441" height="11.0818"/><rect class="cls-2" x="7.0989" y="17.0027" width="5.7865" height="0.9486"/><path class="cls-1" d="M12.5069,8.8279h-.6334V7.3824a1.8989,1.8989,0,0,0-3.7969,0V8.8279H7.4445A1.0558,1.0558,0,0,0,6.39,9.8826v3.5859a1.0559,1.0559,0,0,0,1.0547,1.0547h5.0624a1.0559,1.0559,0,0,0,1.0547-1.0547V9.8826A1.0558,1.0558,0,0,0,12.5069,8.8279Z"/><path class="cls-2" d="M8.78,7.3876a1.1958,1.1958,0,0,1,2.3907,0V8.84H8.78V7.3876Z"/><rect class="cls-2" x="7.0929" y="9.531" width="5.7656" height="4.289" rx="0.3516"/><path class="cls-1" d="M9.9757,10.5505a.65.65,0,0,0-.3522,1.197v.7718a.3516.3516,0,0,0,.7031,0v-.7709a.65.65,0,0,0-.3509-1.1979Z"/></svg>