<svg id="Layer_1" data-name="Layer 1" xmlns="http://www.w3.org/2000/svg" viewBox="0 0 20 20"><defs><style>.cls-1{fill:#fff;}.cls-2{fill:#ff5722;}</style></defs><title>icon_board</title><path class="cls-1" d="M17.95,4.1046H2.0084a.6755.6755,0,0,0-.6755.6755V15.588a.6755.6755,0,0,0,.6755.6755h5.41l-.7948,3.0732a.6755.6755,0,0,0,1.308.3383l.8823-3.4115h2.3314l.8823,3.4115a.6755.6755,0,1,0,1.3079-.3383L12.54,16.2635h5.41a.6755.6755,0,0,0,.6755-.6755V4.78A.6756.6756,0,0,0,17.95,4.1046Z"/><rect class="cls-2" x="3.1501" y="5.8883" width="13.6666" height="8.4844"/></svg>