<svg id="Layer_1" data-name="Layer 1" xmlns="http://www.w3.org/2000/svg" viewBox="0 0 25 25"><defs><style>.cls-1{fill:#fff;}.cls-2{fill:#ff5722;}</style></defs><title>icon_setting</title><path class="cls-1" d="M22.0724,10.5357,20.4813,10.19a8.6679,8.6679,0,0,0-.5121-1.2349l.8809-1.37a.6186.6186,0,0,0-.083-.7718L18.2883,4.334a.6188.6188,0,0,0-.7719-.0829l-1.37.8809A8.6727,8.6727,0,0,0,14.9114,4.62l-.3459-1.5911a.6185.6185,0,0,0-.6044-.4871H10.4556a.6187.6187,0,0,0-.6045.4871L9.5052,4.62A8.6667,8.6667,0,0,0,8.27,5.132L6.9,4.2511a.6188.6188,0,0,0-.7719.0829L3.65,6.8129a.6187.6187,0,0,0-.0829.7718l.8809,1.37A8.6563,8.6563,0,0,0,3.9354,10.19l-1.5911.3459a.6186.6186,0,0,0-.4872.6044v3.5055a.6188.6188,0,0,0,.4872.6045l1.5911.3459a8.6551,8.6551,0,0,0,.5121,1.2348l-.8809,1.37a.6188.6188,0,0,0,.0829.7719l2.4788,2.4788a.6188.6188,0,0,0,.7719.0829l1.37-.8809a8.6551,8.6551,0,0,0,1.2348.5121l.3459,1.5911a.6187.6187,0,0,0,.6045.4871h3.5055a.6185.6185,0,0,0,.6044-.4871l.3459-1.5911a8.6611,8.6611,0,0,0,1.2349-.5121l1.37.8809a.6186.6186,0,0,0,.7719-.0829l2.4788-2.4788a.6187.6187,0,0,0,.083-.7719l-.8809-1.37a8.6667,8.6667,0,0,0,.5121-1.2348l1.5911-.3459a.6188.6188,0,0,0,.4871-.6045V11.14A.6186.6186,0,0,0,22.0724,10.5357Z"/><path class="cls-2" d="M21.3223,14.147l-1.4589.3171a.6188.6188,0,0,0-.4645.4383,7.4267,7.4267,0,0,1-.6854,1.6529.6185.6185,0,0,0,.0183.6386l.8079,1.2566-1.7735,1.7738-1.2568-.8079a.6181.6181,0,0,0-.6384-.0184,7.4227,7.4227,0,0,1-1.6531.6854.6189.6189,0,0,0-.4383.4645l-.3172,1.459H10.9542l-.3171-1.459a.6189.6189,0,0,0-.4383-.4645,7.4173,7.4173,0,0,1-1.6529-.6854.6189.6189,0,0,0-.6386.0184l-1.2566.8079L4.8771,18.4505l.8077-1.2566a.6183.6183,0,0,0,.0185-.6386,7.4317,7.4317,0,0,1-.6855-1.6529.6186.6186,0,0,0-.4644-.4383L3.0943,14.147V11.6388l1.459-.3172a.6189.6189,0,0,0,.4645-.4383A7.4216,7.4216,0,0,1,5.7031,9.23a.6183.6183,0,0,0-.0183-.6386L4.8769,7.3352,6.6505,5.5614l1.2568.8079a.6181.6181,0,0,0,.6384.0184,7.4321,7.4321,0,0,1,1.6531-.6854.6189.6189,0,0,0,.4383-.4645l.3171-1.4589h2.5082L13.78,5.2378a.6189.6189,0,0,0,.4383.4645,7.4267,7.4267,0,0,1,1.6529.6854.6189.6189,0,0,0,.6386-.0184l1.2566-.8079L19.54,7.3352l-.8078,1.2566a.6185.6185,0,0,0-.0184.6386,7.427,7.427,0,0,1,.6855,1.6529.6187.6187,0,0,0,.4643.4383l1.4591.3172Z"/><circle class="cls-1" cx="12.2083" cy="12.8929" r="4.9488"/><circle class="cls-2" cx="12.2083" cy="12.8929" r="3.7116"/></svg>