<svg id="Layer_1" data-name="Layer 1" xmlns="http://www.w3.org/2000/svg" viewBox="0 0 20 20"><defs><style>.cls-1{fill:#fff;}.cls-2{fill:#ff5722;}</style></defs><title>icon_lock</title><path class="cls-1" d="M15.5312,7.34H14.147V4.1818a4.1494,4.1494,0,0,0-8.2969,0V7.34H4.4688A2.3073,2.3073,0,0,0,2.1641,9.6451V17.481a2.3073,2.3073,0,0,0,2.3047,2.3047H15.5312a2.3073,2.3073,0,0,0,2.3047-2.3047V9.6451A2.3073,2.3073,0,0,0,15.5312,7.34Z"/><path class="cls-2" d="M7.3866,4.1818a2.6135,2.6135,0,0,1,5.224,0V7.34H7.3866V4.1818Z"/><rect class="cls-2" x="3.7005" y="8.8769" width="12.599" height="9.3724" rx="0.7682"/><path class="cls-1" d="M10,11.1047a1.4211,1.4211,0,0,0-.77,2.6158v1.6863a.7683.7683,0,0,0,1.5365,0V13.7223A1.4211,1.4211,0,0,0,10,11.1047Z"/></svg>