<?xml version="1.0" encoding="utf-8"?>
<!-- Generator: Adobe Illustrator 23.0.3, SVG Export Plug-In . SVG Version: 6.00 Build 0)  -->
<svg version="1.1" id="Layer_1" xmlns="http://www.w3.org/2000/svg" xmlns:xlink="http://www.w3.org/1999/xlink" x="0px" y="0px"
	 viewBox="0 0 20 20" style="enable-background:new 0 0 20 20;" xml:space="preserve">
<style type="text/css">
	.st0{fill:#FFFFFF;}
	.st1{fill:#FF6C3E;}
</style>
<title>icon_mic</title>
<g>
	<path class="st0" d="M16.4,10.3c0-0.4-0.3-0.7-0.7-0.7S15,9.9,15,10.3c0,2.8-2.2,5-5,5s-5-2.2-5-5c0-0.4-0.3-0.7-0.7-0.7
		s-0.7,0.3-0.7,0.7c0,3.3,2.4,6,5.7,6.4v1.9H6.7c-0.4,0-0.7,0.3-0.7,0.7S6.3,20,6.7,20l0,0h6.5c0.4,0,0.7-0.3,0.7-0.7
		s-0.3-0.7-0.7-0.7h-2.6v-1.9C13.9,16.3,16.4,13.6,16.4,10.3z"/>
	<g>
		<path class="st1" d="M10,13.6c-1.8,0-3.3-1.5-3.3-3.3V3.9c0-1.8,1.5-3.3,3.3-3.3c1.8,0,3.3,1.5,3.3,3.3v6.4
			C13.3,12.1,11.8,13.6,10,13.6C10,13.6,10,13.6,10,13.6z"/>
		<path class="st0" d="M10,1.3c1.4,0,2.6,1.2,2.6,2.6l0,6.4c0,1.4-1.2,2.6-2.6,2.6c-1.4,0-2.6-1.2-2.6-2.6V3.9
			C7.4,2.5,8.6,1.3,10,1.3 M10,0C7.8,0,6.1,1.8,6.1,3.9v6.4c0,2.2,1.7,3.9,3.9,3.9c0,0,0,0,0,0c2.2,0,3.9-1.7,3.9-3.9V3.9
			C13.9,1.8,12.2,0,10,0L10,0z"/>
	</g>
</g>
</svg>
