<svg id="Layer_1" data-name="Layer 1" xmlns="http://www.w3.org/2000/svg" viewBox="0 0 25 25"><defs><style>.cls-1{fill:#fff;}.cls-2{fill:#ff5722;}</style></defs><title>icon_lockscreen</title><path class="cls-1" d="M22.2534,4.2274H2.6063A1.0816,1.0816,0,0,0,1.55,5.2905V18.2679a1.0263,1.0263,0,0,0,1.0565.9979H7.215v1.03H6.32a1.03,1.03,0,0,0,0,2.06H18.54a1.03,1.03,0,1,0,0-2.06h-.9213v-1.03h4.6351a1.0033,1.0033,0,0,0,1.03-.9758l0-.0221V5.2905A1.0588,1.0588,0,0,0,22.2534,4.2274Z"/><rect class="cls-2" x="3.1631" y="5.7335" width="18.5071" height="12.033"/><rect class="cls-2" x="9.2751" y="19.2658" width="6.2832" height="1.03"/><path class="cls-1" d="M15.1473,10.3894h-.6879V8.82a2.0618,2.0618,0,0,0-4.1227,0v1.5695H9.65a1.1465,1.1465,0,0,0-1.1452,1.1452v3.8937A1.1465,1.1465,0,0,0,9.65,16.5735h5.497a1.1465,1.1465,0,0,0,1.1452-1.1452V11.5346A1.1465,1.1465,0,0,0,15.1473,10.3894Z"/><path class="cls-2" d="M11.1,8.8255a1.2984,1.2984,0,0,1,2.5958,0v1.5766H11.1V8.8255Z"/><rect class="cls-2" x="9.2685" y="11.1529" width="6.2605" height="4.6572" rx="0.3817"/><path class="cls-1" d="M12.3988,12.26a.7062.7062,0,0,0-.3825,1.3v.8379a.3818.3818,0,1,0,.7635,0v-.837a.7061.7061,0,0,0-.381-1.3007Z"/></svg>