<svg id="Layer_1" data-name="Layer 1" xmlns="http://www.w3.org/2000/svg" viewBox="0 0 25 25"><defs><style>.cls-1{fill:#fff;}.cls-2{fill:#ff5722;}</style></defs><title>icon_board</title><path class="cls-1" d="M21.81,4.2857H3.4655a.7773.7773,0,0,0-.7773.7773V17.5a.7773.7773,0,0,0,.7773.7773h6.225l-.9146,3.5364a.7773.7773,0,0,0,1.5051.3893l1.0153-3.9257H13.979l1.0153,3.9257a.7773.7773,0,1,0,1.5051-.3893l-.9146-3.5364H21.81a.7773.7773,0,0,0,.7773-.7773V5.063A.7773.7773,0,0,0,21.81,4.2857Z"/><rect class="cls-2" x="4.7793" y="6.3382" width="15.7264" height="9.7631"/></svg>