<svg id="Layer_1" data-name="Layer 1" xmlns="http://www.w3.org/2000/svg" viewBox="0 0 25 25"><defs><style>.cls-1{fill:#fff;}.cls-2{fill:#ff5722;}</style></defs><title>icon_video</title><path class="cls-1" d="M23.1028,7.2447a.4428.4428,0,0,0-.4378-.0079l-4.79,2.6152V8.2828a2.2138,2.2138,0,0,0-2.2113-2.2113H4.6558A2.2139,2.2139,0,0,0,2.4444,8.2828v8.7313a2.2139,2.2139,0,0,0,2.2114,2.2114H15.6641a2.2138,2.2138,0,0,0,2.2113-2.2114V15.4735l4.79,2.6152a.4422.4422,0,0,0,.6542-.3882V7.6249A.4421.4421,0,0,0,23.1028,7.2447Z"/><path class="cls-2" d="M18.5423,11.48l2.7892-1.54a.3136.3136,0,0,1,.4683.265v4.5371a.35.35,0,0,1-.5053.3053l-2.7221-1.3068a.43.43,0,0,1-.2471-.3864v-1.512A.4148.4148,0,0,1,18.5423,11.48Z"/><path class="cls-2" d="M16.1708,16.2317a1.1517,1.1517,0,0,1-1.181,1.1175H5.1914A1.1518,1.1518,0,0,1,4.01,16.2317V8.8772A1.1521,1.1521,0,0,1,5.1914,7.76H14.99a1.1521,1.1521,0,0,1,1.181,1.1176Z"/></svg>