<svg id="Layer_1" data-name="Layer 1" xmlns="http://www.w3.org/2000/svg" viewBox="0 0 25 25"><defs><style>.cls-1{fill:#fff;}</style></defs><title>icon_mic</title><path class="cls-1" d="M18.94,12.3047a.71.71,0,0,0-1.4206,0,5.0194,5.0194,0,0,1-10.0388,0,.71.71,0,0,0-1.4206,0,6.439,6.439,0,0,0,5.73,6.4163v1.8941H9.209a.71.71,0,1,0,0,1.4206h6.582a.71.71,0,0,0,0-1.4206H13.21V18.721A6.439,6.439,0,0,0,18.94,12.3047Z"/><path class="cls-1" d="M12.5,1.9107a3.961,3.961,0,0,0-3.954,3.954V12.281a3.954,3.954,0,1,0,7.908.0237v-6.44A3.961,3.961,0,0,0,12.5,1.9107Z"/></svg>