<svg id="Layer_1" data-name="Layer 1" xmlns="http://www.w3.org/2000/svg" viewBox="0 0 20 20"><defs><style>.cls-1{fill:#fff;}.cls-2{fill:#ff5722;}</style></defs><title>icon_share</title><path class="cls-1" d="M8.8707,6.2147H.4155a.4557.4557,0,0,0-.4433.4575v5.585a.4316.4316,0,0,0,.4338.43H2.41V13.13H2.0138a.4433.4433,0,1,0,0,.8865H7.2724a.4433.4433,0,1,0,0-.8865h-.385v-.4433H8.8707a.4417.4417,0,0,0,.4547-.4294V6.6722A.4655.4655,0,0,0,8.8707,6.2147Z"/><rect class="cls-2" x="3.2968" y="12.6866" width="2.704" height="0.4433"/><rect class="cls-2" x="0.8588" y="7.1013" width="7.5801" height="4.6988"/><path class="cls-1" d="M19.5289,6.2147H11.0737a.4655.4655,0,0,0-.4547.4575v5.585a.4417.4417,0,0,0,.4547.4294h1.9834V13.13H12.672a.4433.4433,0,0,0,0,.8865h5.2587a.4433.4433,0,0,0,0-.8865h-.3965v-.4433h1.9947a.4318.4318,0,0,0,.4432-.42V6.6722A.4557.4557,0,0,0,19.5289,6.2147Z"/><rect class="cls-2" x="13.9436" y="12.6866" width="2.704" height="0.4433"/><rect class="cls-2" x="11.5056" y="7.1013" width="7.5801" height="4.6988"/></svg>