<svg id="Layer_1" data-name="Layer 1" xmlns="http://www.w3.org/2000/svg" viewBox="0 0 25 25"><defs><style>.cls-1{fill:#fff;}.cls-2{fill:#ff5722;}</style></defs><title>icon_lock</title><path class="cls-1" d="M18.7009,9.5718H17.1491V6.0308a4.6517,4.6517,0,0,0-9.3014,0v3.541H6.2991a2.5867,2.5867,0,0,0-2.5837,2.5837V20.94a2.5866,2.5866,0,0,0,2.5837,2.5837H18.7009A2.5866,2.5866,0,0,0,21.2846,20.94V12.1555A2.5867,2.5867,0,0,0,18.7009,9.5718Z"/><path class="cls-2" d="M9.57,6.0308a2.93,2.93,0,0,1,5.8564,0v3.541H9.57V6.0308Z"/><rect class="cls-2" x="5.4379" y="11.2943" width="14.1243" height="10.5071" rx="0.8612"/><path class="cls-1" d="M12.5,13.7919a1.5931,1.5931,0,0,0-.8628,2.9324v1.89a.8612.8612,0,0,0,1.7224,0V16.7263a1.593,1.593,0,0,0-.86-2.9344Z"/></svg>