<?xml version="1.0" encoding="utf-8"?>
<!-- Generator: Adobe Illustrator 23.0.3, SVG Export Plug-In . SVG Version: 6.00 Build 0)  -->
<svg version="1.1" id="Capa_1" xmlns="http://www.w3.org/2000/svg" xmlns:xlink="http://www.w3.org/1999/xlink" x="0px" y="0px"
	 viewBox="0 0 505.4 505.4" style="enable-background:new 0 0 505.4 505.4;" xml:space="preserve">
<style type="text/css">
	.st0{fill:#FFFFFF;}
	.st1{fill:#FF6C3E;}
</style>
<g>
	<path class="st0" d="M437.1,233.4c14.8-10.4,24.6-27.7,24.6-47.2c0-31.9-25.8-57.7-57.7-57.7s-57.7,25.8-57.7,57.7
		c0,19.5,9.7,36.8,24.6,47.2c-12.7,4.4-24.3,11.2-34.1,20c-13.5-11.5-29.4-20.3-46.8-25.5c21.1-12.8,35.3-36.1,35.3-62.6
		c0-40.4-32.7-73.1-73.1-73.1s-73.1,32.8-73.1,73.1c0,26.5,14.1,49.8,35.3,62.6c-17.2,5.2-32.9,13.9-46.3,25.2
		c-9.8-8.6-21.2-15.3-33.7-19.6c14.8-10.4,24.6-27.7,24.6-47.2c0-31.9-25.8-57.7-57.7-57.7s-57.7,25.8-57.7,57.7
		c0,19.5,9.7,36.8,24.6,47.2C28.5,247.3,0,285,0,329.3v6.6c0,0.2,0.2,0.4,0.4,0.4h122.3c-0.7,5.5-1.1,11.2-1.1,16.9v6.8
		c0,29.4,23.8,53.2,53.2,53.2h155c29.4,0,53.2-23.8,53.2-53.2v-6.8c0-5.7-0.4-11.4-1.1-16.9H505c0.2,0,0.4-0.2,0.4-0.4v-6.6
		C505.2,284.9,476.8,247.1,437.1,233.4z"/>
	<g>
		<path class="st1" d="M369.3,185.9c0-19.4,15.7-35.1,35.1-35.1c19.4,0,35.1,15.7,35.1,35.1c0,19.1-15.4,34.7-34.4,35.1
			c-0.3,0-0.4,0-0.7,0c-0.3,0-0.4,0-0.7,0C384.7,220.7,369.3,205.1,369.3,185.9z"/>
	</g>
	<g>
		<path class="st1" d="M205.9,164.5c0-25.4,20.7-46.1,46.1-46.1c25.4,0,46.1,20.7,46.1,46.1c0,24.6-19.3,44.7-43.4,46.1
			c-0.9,0-1.8,0-2.7,0c-0.9,0-1.8,0-2.7,0C225.2,209.1,205.9,189,205.9,164.5z"/>
	</g>
	<g>
		<path class="st1" d="M66.4,183c0-19.3,15.7-35,35-35s35,15.7,35,35c0,19.1-15.4,34.6-34.3,35c-0.3,0-0.4,0-0.7,0
			c-0.3,0-0.4,0-0.7,0C81.8,217.7,66.4,202.1,66.4,183z"/>
	</g>
	<g>
		<path class="st1" d="M115.7,314.4H25.5c3.7-35.2,33.4-62.8,69.5-63c0.2,0,0.3,0,0.5,0c0.2,0,0.3,0,0.5,0
			c17.2,0.1,32.9,6.4,45,16.8C129.1,281.1,120.3,297,115.7,314.4z"/>
	</g>
	<g>
		<path class="st1" d="M351.5,353.8c0,17.8-14.5,32.2-32.2,32.2H185c-17.8,0-32.2-14.5-32.2-32.2v-5.9c0-53.8,43-97.8,96.4-99.4
			c1,0.1,2,0.1,2.9,0.1s2,0,2.9-0.1c53.5,1.6,96.4,45.6,96.4,99.4V353.8z"/>
	</g>
	<g>
		<path class="st1" d="M388,317.1c-4.7-18.1-13.7-34.3-26-47.6c12.7-11,29.1-17.6,47.1-17.7c0.2,0,0.3,0,0.5,0c0.2,0,0.3,0,0.5,0
			c37.4,0.3,68.3,28.9,72.1,65.4H388z"/>
	</g>
</g>
</svg>
